<?xml version="1.0" encoding="UTF-8" standalone="no"?>
<!DOCTYPE svg PUBLIC "-//W3C//DTD SVG 1.1//EN" "http://www.w3.org/Graphics/SVG/1.1/DTD/svg11.dtd">
<svg width="100%" height="100%" viewBox="0 0 128 192" version="1.1" xmlns="http://www.w3.org/2000/svg" xmlns:xlink="http://www.w3.org/1999/xlink" xml:space="preserve" xmlns:serif="http://www.serif.com/" style="fill-rule:evenodd;clip-rule:evenodd;stroke-linejoin:round;stroke-miterlimit:2;">
    <g>
        <circle cx="64" cy="63.801" r="64" style="fill:rgb(194,213,216);"/>
        <path d="M94,63.799L34,63.799C33.297,63.799 32.625,64.097 32.152,64.619C27.047,70.227 24,77.824 24,84.932L24,113.745C34.958,122.532 48.86,127.802 64,127.802C79.141,127.802 93.042,122.532 104,113.745L104,84.93C104,77.828 100.953,70.235 95.852,64.619C95.377,64.098 94.705,63.799 94,63.799Z" style="fill:rgb(25,128,88);fill-rule:nonzero;"/>
        <path d="M92.25,73.436L92.25,69.34C92.25,59.562 79.312,66.301 64,66.301C48.688,66.301 35.75,59.562 35.75,69.34L35.754,73.434C33.414,74.493 32.072,76.551 32.072,80.301L32.096,119.647L32.147,119.733L32.271,119.837C41.917,125.312 52.888,128.2 64,128.2C75.111,128.2 86.117,125.29 95.878,119.753L95.928,119.726L95.928,80.301C95.928,76.553 94.588,74.494 92.25,73.436Z" style="fill:rgb(16,153,99);fill-rule:nonzero;"/>
        <path d="M28,105.801C27.447,105.801 27,105.354 27,104.801L27,84.932C27,78.795 29.587,72.147 33.92,67.145C34.283,66.729 34.914,66.684 35.331,67.045C35.748,67.404 35.793,68.037 35.432,68.455C31.405,73.102 29,79.262 29,84.932L29,104.801C29,105.354 28.553,105.801 28,105.801Z" style="fill:rgb(30,153,105);fill-rule:nonzero;"/>
        <path d="M94,63.799L91,63.799C91.705,63.799 92.377,64.097 92.852,64.621C97.954,70.234 101,77.828 101,84.932L101,116.004C102.021,115.277 103.023,114.525 104,113.744L104,84.93C104,77.828 100.953,70.235 95.852,64.619C95.377,64.098 94.705,63.799 94,63.799Z" style="fill:rgb(20,102,70);fill-rule:nonzero;"/>
        <path d="M96.236,52.682C93.613,47.438 81.833,36.299 64,36.299C46.167,36.299 34.386,47.438 31.764,52.682C30.69,54.562 29,58.537 29,61.299C29,73.498 45.027,83.799 64,83.799C82.973,83.799 99,73.496 99,61.299C99,58.537 97.311,54.562 96.236,52.682Z" style="fill:rgb(25,128,88);fill-rule:nonzero;"/>
        <path d="M64,83.801C75.85,83.801 86.55,79.781 92.914,73.791C92.701,73.666 92.484,73.541 92.25,73.436L92.25,69.34C92.25,59.562 79.312,66.301 64,66.301C48.688,66.301 35.75,59.562 35.75,69.34L35.754,73.434C35.52,73.539 35.301,73.664 35.085,73.791C41.449,79.781 52.15,83.801 64,83.801Z" style="fill:rgb(19,179,116);fill-rule:nonzero;"/>
        <path d="M96.236,52.682C93.613,47.438 81.833,36.299 64,36.299C63.494,36.299 62.996,36.311 62.5,36.328C79.492,36.928 90.688,47.585 93.236,52.681C94.311,54.562 96,58.537 96,61.299C96,73.174 80.811,83.25 62.5,83.775C62.998,83.791 63.497,83.798 64,83.798C82.973,83.798 99,73.495 99,61.298C99,58.537 97.311,54.562 96.236,52.682Z" style="fill:rgb(20,102,70);fill-rule:nonzero;"/>
        <path d="M92.914,73.791C92.701,73.666 92.484,73.541 92.25,73.436L92.25,71.248C86.643,78.338 75.343,83.408 62.5,83.775C62.998,83.791 63.497,83.798 64,83.798C75.85,83.801 86.55,79.781 92.914,73.791Z" style="fill:rgb(18,166,107);fill-rule:nonzero;"/>
        <g>
            <path d="M41.5,53.799C35.985,53.799 31.5,49.314 31.5,43.799C31.5,38.284 35.985,33.799 41.5,33.799C47.015,33.799 51.5,38.284 51.5,43.799C51.5,49.314 47.015,53.799 41.5,53.799Z" style="fill:rgb(255,192,102);fill-rule:nonzero;"/>
            <path d="M37.253,41.175L35.242,38.829C34.153,40.192 33.5,41.92 33.5,43.799C33.5,43.996 33.516,44.189 33.529,44.382L36.557,44.382C36.536,44.189 36.499,43.999 36.499,43.799C36.5,42.834 36.776,41.937 37.253,41.175Z" style="fill:rgb(255,213,153);fill-rule:nonzero;"/>
            <path d="M39.24,39.365C39.779,39.094 40.373,38.915 41,38.85L41,35.826C39.627,35.911 38.35,36.348 37.249,37.042L39.24,39.365Z" style="fill:rgb(255,213,153);fill-rule:nonzero;"/>
            <path d="M41.5,40.189C38.139,40.189 34.36,41.579 33.167,43.799C34.36,46.021 38.139,47.409 41.5,47.409C44.806,47.409 48.472,45.936 49.833,43.799C48.472,41.662 44.806,40.189 41.5,40.189Z" style="fill:rgb(36,36,36);fill-rule:nonzero;"/>
            <path d="M33.523,43.265C33.511,43.443 33.5,43.62 33.5,43.8C33.5,43.983 33.515,44.161 33.527,44.34C33.538,44.355 33.548,44.368 33.56,44.383L36.557,44.383C36.536,44.19 36.499,44 36.499,43.8C36.499,42.835 36.775,41.937 37.252,41.176L37.063,40.954C35.568,41.485 34.285,42.276 33.523,43.265Z" style="fill:rgb(51,51,51);fill-rule:nonzero;"/>
        </g>
        <path d="M41.5,53.799C35.985,53.799 31.5,49.314 31.5,43.799C31.5,38.284 35.985,33.799 41.5,33.799C47.015,33.799 51.5,38.284 51.5,43.799C51.5,49.314 47.015,53.799 41.5,53.799Z" style="fill:rgb(245,245,245);fill-rule:nonzero;"/>
        <path d="M41.5,40.189C38.139,40.189 34.36,41.579 33.167,43.799C34.36,46.021 38.139,47.409 41.5,47.409C44.806,47.409 48.472,45.936 49.833,43.799C48.472,41.662 44.806,40.189 41.5,40.189Z" style="fill:rgb(36,36,36);fill-rule:nonzero;"/>
        <path d="M33.523,43.265C33.511,43.443 33.5,43.62 33.5,43.8C33.5,43.983 33.515,44.161 33.527,44.34C33.538,44.355 33.548,44.368 33.56,44.383L36.557,44.383C36.536,44.19 36.499,44 36.499,43.8C36.499,42.835 36.775,41.937 37.252,41.176L37.063,40.954C35.568,41.485 34.285,42.276 33.523,43.265Z" style="fill:rgb(51,51,51);fill-rule:nonzero;"/>
        <path d="M86.5,53.799C80.984,53.799 76.5,49.314 76.5,43.799C76.5,38.284 80.984,33.799 86.5,33.799C92.016,33.799 96.5,38.284 96.5,43.799C96.5,49.314 92.016,53.799 86.5,53.799Z" style="fill:rgb(245,245,245);fill-rule:nonzero;"/>
        <path d="M86.5,40.189C83.139,40.189 79.359,41.579 78.167,43.799C79.359,46.021 83.139,47.409 86.5,47.409C89.807,47.409 93.473,45.936 94.833,43.799C93.473,41.662 89.807,40.189 86.5,40.189Z" style="fill:rgb(36,36,36);fill-rule:nonzero;"/>
        <path d="M78.523,43.265C78.511,43.443 78.5,43.62 78.5,43.8C78.5,43.983 78.516,44.161 78.527,44.34C78.538,44.355 78.548,44.368 78.56,44.383L81.556,44.383C81.535,44.19 81.498,44 81.498,43.8C81.498,42.835 81.774,41.937 82.251,41.176L82.062,40.954C80.568,41.485 79.285,42.276 78.523,43.265Z" style="fill:rgb(51,51,51);fill-rule:nonzero;"/>
        <path d="M89.784,63.576C87.01,62.56 82.829,63.188 77.775,63.958C73.634,64.588 68.945,65.301 64,65.301C59.054,65.301 54.363,64.588 50.225,63.958C45.171,63.188 40.992,62.562 38.216,63.576C37.911,63.686 37.313,64.315 37.587,64.998C37.709,65.301 38.504,65.613 38.75,65.512C41.002,64.584 45.177,65.213 49.924,65.936C54.133,66.577 58.903,67.301 64,67.301C69.098,67.301 73.867,66.574 78.076,65.936C82.822,65.213 86.998,64.584 89.25,65.512C89.496,65.616 90.291,65.301 90.413,64.998C90.688,64.315 90.089,63.687 89.784,63.576Z" style="fill:rgb(36,36,36);fill-rule:nonzero;"/>
        <g transform="matrix(1,0,0,1,28.9321,171.859)">
            <text x="0px" y="0px" style="font-family:'MVBoli', 'MV Boli';font-style:italic;font-size:24px;fill:white;">Wikkit</text>
        </g>
    </g>
</svg>
