<?xml version="1.0" encoding="UTF-8" standalone="no"?>
<!DOCTYPE svg PUBLIC "-//W3C//DTD SVG 1.1//EN" "http://www.w3.org/Graphics/SVG/1.1/DTD/svg11.dtd">
<svg width="100%" height="100%" viewBox="0 0 70 70" version="1.1" xmlns="http://www.w3.org/2000/svg" xmlns:xlink="http://www.w3.org/1999/xlink" xml:space="preserve" xmlns:serif="http://www.serif.com/" style="fill-rule:evenodd;clip-rule:evenodd;stroke-linejoin:round;stroke-miterlimit:2;">
    <g transform="matrix(2.74325,0,0,2.69197,-88.4794,-80.7695)">
        <g id="Layer1">
            <ellipse cx="45.012" cy="43.005" rx="12.394" ry="12.63" style="fill:white;"/>
        </g>
    </g>
    <g id="Layer_3_copy_2" transform="matrix(0.909091,0,0,0.909091,5.45455,5.45459)">
        <g>
            <path d="M32.5,4.999C27.095,4.999 22.056,6.576 17.801,9.281L12.051,3.531L12.051,19.641L28.161,19.641L21.766,13.246C24.946,11.459 28.6,10.426 32.5,10.426C44.671,10.426 54.573,20.328 54.573,32.5C54.573,35.399 53.996,38.164 52.974,40.702L57.712,43.464C59.182,40.101 60,36.396 60,32.5C60,17.336 47.663,4.999 32.5,4.999Z" style="fill:rgb(0,70,217);fill-rule:nonzero;"/>
            <path d="M43.227,51.746C40.048,53.532 36.401,54.573 32.501,54.573C20.33,54.573 10.428,44.671 10.428,32.5C10.428,29.761 10.952,27.15 11.867,24.729L7.136,21.878C5.761,25.149 5,28.736 5,32.5C5,47.664 17.336,60 32.5,60C37.906,60 42.934,58.416 47.191,55.711L52.949,61.47L52.949,45.358L36.838,45.358L43.227,51.746Z" style="fill:rgb(0,70,217);fill-rule:nonzero;"/>
        </g>
    </g>
</svg>
